<svg xmlns="http://www.w3.org/2000/svg" fill="currentColor" viewBox="0 0 24 24">
  <path d="M12 2C6.48 2 2 6.48 2 12s4.48 10 10 10 10-4.48 10-10S17.52 2 12 2zm0 18c-2.21 0-4.15-.9-5.6-2.35C7.16 16.45 9.5 16 12 16s4.84.45 5.6 1.65C16.15 19.1 14.21 20 12 20zm6.32-3.15c-.8-1.05-2.04-1.83-3.55-2.22C15.49 14.26 16 13.2 16 12c0-.74-.2-1.44-.54-2.05.42-.14.85-.25 1.3-.25 1.66 0 3 1.34 3 3 0 .86-.36 1.64-.94 2.2zM8.24 9.76c-.34.6-.54 1.31-.54 2.05 0 1.2.51 2.26 1.23 3.04-1.5.39-2.74 1.17-3.55 2.22C4.36 15.64 4 14.86 4 14c0-1.66 1.34-3 3-3 .45 0 .88.11 1.3.25-.34-.61-.54-1.31-.54-2.05 0-1.2.51-2.26 1.23-3.04-1.5-.39-2.74-1.17-3.55-2.22C4.36 8.36 4 9.14 4 10c0 1.66 1.34 3 3 3 .45 0 .88-.11 1.3-.25-.34.61-.54 1.31-.54 2.05 0 1.2.51 2.26 1.23 3.04C8.41 18.1 10.35 19 12 19c1.65 0 3.59-.9 4.76-2.35.72-.78 1.23-1.84 1.23-3.04 0-.74-.2-1.44-.54-2.05.42-.14.85-.25 1.3-.25 1.66 0 3 1.34 3 3 0 .86-.36 1.64-.94 2.2z"/>
</svg>
